<?xml version="1.0" encoding="UTF-8" standalone="no"?>
<!DOCTYPE svg PUBLIC "-//W3C//DTD SVG 1.1//EN" "http://www.w3.org/Graphics/SVG/1.1/DTD/svg11.dtd">
<!-- Created with Vectornator (http://vectornator.io/) -->
<svg height="100%" stroke-miterlimit="10" style="fill-rule:nonzero;clip-rule:evenodd;stroke-linecap:round;stroke-linejoin:round;" version="1.1" viewBox="0 0 512 492.648" width="100%" xml:space="preserve" xmlns="http://www.w3.org/2000/svg" xmlns:vectornator="http://vectornator.io" xmlns:xlink="http://www.w3.org/1999/xlink">
<defs/>
<g id="Untitled" vectornator:layerName="Untitled">
<g opacity="1" vectornator:layerName="g">
<path d="M236 480L276 480L288 464L224 464L236 480Z" fill="#000000" fill-rule="nonzero" opacity="1" stroke="none" vectornator:layerName="polygon"/>
<path d="M216 400L296 400L296 400L296 416L296 416L216 416L216 416L216 400L216 400Z" fill="#000000" fill-rule="nonzero" opacity="1" stroke="none" vectornator:layerName="rect"/>
<path d="M216 432L296 432L296 432L296 448L296 448L216 448L216 448L216 432L216 432Z" fill="#000000" fill-rule="nonzero" opacity="1" stroke="none" vectornator:layerName="rect"/>
<path d="M216 184C216 161.909 233.909 144 256 144C278.091 144 296 161.909 296 184C296 206.091 278.091 224 256 224C233.909 224 216 206.091 216 184Z" fill="#000000" fill-rule="nonzero" opacity="1" stroke="none" vectornator:layerName="circle"/>
<path d="M346.68 82.641C321.872 60.2442 289.61 47.8915 256.188 47.992C250.921 47.9933 245.657 48.2854 240.422 48.867C178.122 55.773 127.852 106.008 120.883 168.305C116.111 209.416 130.366 250.456 159.594 279.758C185.648 305.9 200 339.414 200 374.133L200 376C200.003 380.417 203.583 383.997 208 384L304 384C308.417 383.997 311.997 380.417 312 376L312 374.383C312 339.555 326.383 305.914 352.5 279.664C377.869 254.3 392.084 219.873 392 184C391.974 145.31 375.497 108.457 346.68 82.641ZM361.938 207.758L347.977 211.25C346.075 217.672 343.501 223.876 340.297 229.758L347.711 242.109C349.601 245.256 349.106 249.286 346.511 251.883L323.886 274.508C321.287 277.1 317.26 277.594 314.112 275.708L301.758 268.3C295.876 271.504 289.672 274.078 283.25 275.98L279.758 289.941C278.868 293.501 275.67 295.999 272 296L240 296C236.33 295.998 233.131 293.499 232.242 289.938L228.75 275.977C222.328 274.075 216.124 271.501 210.242 268.297L197.891 275.711C194.744 277.601 190.714 277.106 188.117 274.511L165.492 251.886C162.897 249.289 162.402 245.259 164.292 242.112L171.706 229.761C168.502 223.879 165.928 217.675 164.026 211.253L150.065 207.761C146.502 206.873 144.001 203.672 144 200L144 168C144.002 164.33 146.501 161.131 150.062 160.242L164.023 156.75C165.925 150.328 168.499 144.124 171.703 138.242L164.289 125.891C162.399 122.744 162.894 118.714 165.489 116.117L188.114 93.492C190.713 90.9004 194.74 90.406 197.888 92.292L210.242 99.7C216.124 96.4963 222.328 93.9221 228.75 92.02L232.242 78.059C233.132 74.4991 236.33 72.0014 240 72L272 72C275.67 72.0017 278.869 74.5009 279.758 78.062L283.25 92.023C289.672 93.9251 295.876 96.4993 301.758 99.703L314.109 92.289C317.255 90.3918 321.289 90.8872 323.883 93.489L346.508 116.114C349.103 118.711 349.598 122.741 347.708 125.888L340.3 138.242C343.504 144.124 346.078 150.328 347.98 156.75L361.941 160.242C365.501 161.132 367.999 164.33 368 168L368 200C367.998 203.67 365.499 206.869 361.938 207.758Z" fill="#000000" fill-rule="nonzero" opacity="1" stroke="none" vectornator:layerName="path"/>
<path d="M333.688 165.234C331.741 157.151 328.538 149.424 324.195 142.334C322.637 139.795 322.622 136.599 324.156 134.045L330.781 123.014L316.981 109.214L305.95 115.839C303.396 117.374 300.2 117.359 297.661 115.8C290.571 111.457 282.844 108.254 274.761 106.307C271.863 105.607 269.593 103.356 268.87 100.464L265.75 88L246.25 88L243.125 100.469C242.402 103.361 240.132 105.612 237.234 106.312C229.151 108.259 221.424 111.462 214.334 115.805C211.794 117.36 208.6 117.375 206.045 115.844L195.014 109.219L181.214 123.019L187.839 134.05C189.373 136.604 189.358 139.8 187.8 142.339C183.457 149.429 180.254 157.156 178.307 165.239C177.607 168.137 175.356 170.407 172.464 171.13L160 174.25L160 193.75L172.469 196.875C175.361 197.598 177.612 199.868 178.312 202.766C180.259 210.849 183.462 218.576 187.805 225.666C189.363 228.205 189.378 231.401 187.844 233.955L181.219 244.986L195.019 258.786L206.05 252.161C208.604 250.626 211.8 250.641 214.339 252.2C221.429 256.543 229.156 259.746 237.239 261.693C240.137 262.393 242.407 264.644 243.13 267.536L246.25 280L265.75 280L268.875 267.531C269.598 264.639 271.868 262.388 274.766 261.688C282.849 259.741 290.576 256.538 297.666 252.195C300.204 250.633 303.402 250.617 305.955 252.156L316.986 258.781L330.786 244.981L324.161 233.95C322.627 231.396 322.642 228.2 324.2 225.661C328.543 218.571 331.746 210.844 333.693 202.761C334.393 199.863 336.644 197.593 339.536 196.87L352 193.75L352 174.25L339.531 171.125C336.639 170.402 334.388 168.132 333.688 165.234ZM256 240C225.072 240 200 214.928 200 184C200 153.072 225.072 128 256 128C286.928 128 312 153.072 312 184C311.963 214.912 286.912 239.963 256 240Z" fill="#000000" fill-rule="nonzero" opacity="1" stroke="none" vectornator:layerName="path"/>
<path d="M40 64C50.1374 63.969 59.1582 57.5616 62.526 48L84.688 48L122.344 85.656L133.656 74.344L93.656 34.344C92.1564 32.843 90.1217 31.9998 88 32L62.526 32C58.437 20.5252 46.3884 13.9455 34.5243 16.7084C22.6602 19.4712 14.758 30.6969 16.1591 42.7976C17.5602 54.8984 27.8185 64.0213 40 64ZM40 32C44.4183 32 48 35.5817 48 40C48 44.4183 44.4183 48 40 48C35.5817 48 32 44.4183 32 40C32.0028 35.5829 35.5829 32.0028 40 32Z" fill="#000000" fill-rule="nonzero" opacity="1" stroke="none" vectornator:layerName="path"/>
<path d="M427.312 48L449.475 48C453.371 59.0204 464.64 65.631 476.161 63.6544C487.681 61.6778 496.102 51.6889 496.102 40C496.102 28.3111 487.681 18.3222 476.161 16.3456C464.64 14.369 453.371 20.9796 449.475 32L424 32C421.878 31.9998 419.844 32.843 418.344 34.344L378.344 74.344L389.656 85.656L427.312 48ZM472 32C476.418 32 480 35.5817 480 40C480 44.4183 476.418 48 472 48C467.582 48 464 44.4183 464 40C464.003 35.5829 467.583 32.0028 472 32Z" fill="#000000" fill-rule="nonzero" opacity="1" stroke="none" vectornator:layerName="path"/>
<path d="M40 144C43.6665 143.977 47.2777 143.104 50.55 141.45L50.344 141.656L66.344 157.656C67.8436 159.157 69.8783 160 72 160L96 160L96 144L75.312 144L61.656 130.344L61.45 130.55C63.1047 127.278 63.9775 123.667 64 120C64 106.745 53.2548 96 40 96C26.7452 96 16 106.745 16 120C16 133.255 26.7452 144 40 144ZM40 112C44.4183 112 48 115.582 48 120C48 124.418 44.4183 128 40 128C35.5817 128 32 124.418 32 120C32.0028 115.583 35.5829 112.003 40 112Z" fill="#000000" fill-rule="nonzero" opacity="1" stroke="none" vectornator:layerName="path"/>
<path d="M472 224C468.333 224.022 464.722 224.895 461.45 226.55L461.656 226.344L445.656 210.344C444.156 208.843 442.122 208 440 208L416 208L416 224L436.688 224L450.344 237.656L450.55 237.45C448.896 240.722 448.023 244.333 448 248C448 261.255 458.745 272 472 272C485.255 272 496 261.255 496 248C496 234.745 485.255 224 472 224ZM472 256C467.582 256 464 252.418 464 248C464 243.582 467.582 240 472 240C476.418 240 480 243.582 480 248C479.997 252.417 476.417 255.997 472 256Z" fill="#000000" fill-rule="nonzero" opacity="1" stroke="none" vectornator:layerName="path"/>
<path d="M84.688 320L62.526 320C58.6297 308.98 47.3607 302.369 35.8401 304.346C24.3196 306.322 15.8986 316.311 15.8986 328C15.8986 339.689 24.3196 349.678 35.8401 351.654C47.3607 353.631 58.6297 347.02 62.526 336L88 336C90.1217 336 92.1564 335.157 93.656 333.656L133.656 293.656L122.344 282.344L84.688 320ZM40 336C35.5817 336 32 332.418 32 328C32 323.582 35.5817 320 40 320C44.4183 320 48 323.582 48 328C47.9972 332.417 44.4171 335.997 40 336Z" fill="#000000" fill-rule="nonzero" opacity="1" stroke="none" vectornator:layerName="path"/>
<path d="M472 304C461.863 304.031 452.842 310.438 449.474 320L427.312 320L389.656 282.344L378.344 293.656L418.344 333.656C419.844 335.157 421.878 336 424 336L449.475 336C453.564 347.475 465.613 354.055 477.477 351.292C489.341 348.529 497.243 337.303 495.842 325.202C494.44 313.101 484.182 303.978 472 304ZM472 336C467.582 336 464 332.418 464 328C464 323.582 467.582 320 472 320C476.418 320 480 323.582 480 328C479.997 332.417 476.417 335.997 472 336Z" fill="#000000" fill-rule="nonzero" opacity="1" stroke="none" vectornator:layerName="path"/>
<path d="M472 96C458.751 96.0149 448.015 106.751 448 120C448.023 123.667 448.896 127.279 450.551 130.551L450.344 130.344L436.688 144L416 144L416 160L440 160C442.122 160 444.156 159.157 445.656 157.656L461.656 141.656L461.449 141.449C464.721 143.104 468.333 143.977 472 144C485.255 144 496 133.255 496 120C496 106.745 485.255 96 472 96ZM472 128C467.582 128 464 124.418 464 120C464 115.582 467.582 112 472 112C476.418 112 480 115.582 480 120C479.997 124.417 476.417 127.997 472 128Z" fill="#000000" fill-rule="nonzero" opacity="1" stroke="none" vectornator:layerName="path"/>
<path d="M40 272C53.2487 271.985 63.9851 261.249 64 248C63.9775 244.333 63.1047 240.722 61.45 237.45L61.656 237.656L75.312 224L96 224L96 208L72 208C69.8783 208 67.8436 208.843 66.344 210.344L50.344 226.344L50.55 226.55C47.2779 224.895 43.6666 224.022 40 224C26.7452 224 16 234.745 16 248C16 261.255 26.7452 272 40 272ZM40 240C44.4183 240 48 243.582 48 248C48 252.418 44.4183 256 40 256C35.5817 256 32 252.418 32 248C32.0028 243.583 35.5829 240.003 40 240Z" fill="#000000" fill-rule="nonzero" opacity="1" stroke="none" vectornator:layerName="path"/>
</g>
</g>
</svg>
