<?xml version="1.0" encoding="UTF-8" standalone="no"?>
<!DOCTYPE svg PUBLIC "-//W3C//DTD SVG 1.1//EN" "http://www.w3.org/Graphics/SVG/1.1/DTD/svg11.dtd">
<!-- Created with Vectornator (http://vectornator.io/) -->
<svg height="100%" stroke-miterlimit="10" style="fill-rule:nonzero;clip-rule:evenodd;stroke-linecap:round;stroke-linejoin:round;" version="1.1" viewBox="0 0 60 59.4517" width="100%" xml:space="preserve" xmlns="http://www.w3.org/2000/svg" xmlns:vectornator="http://vectornator.io" xmlns:xlink="http://www.w3.org/1999/xlink">
<defs/>
<clipPath id="ArtboardFrame">
<rect height="59.4517" width="60" x="0" y="0"/>
</clipPath>
<g clip-path="url(#ArtboardFrame)" id="Untitled" vectornator:layerName="Untitled">
<path d="M43.717 39.046L39.046 43.717L50.146 56.464C50.9709 57.3858 52.1363 57.9312 53.3726 57.9741C54.6089 58.0169 55.8092 57.5535 56.696 56.691C57.546 55.7985 58.0006 54.6012 57.9571 53.3694C57.9137 52.1377 57.3758 50.9754 56.465 50.145L43.717 39.046Z" fill="#000000" fill-rule="nonzero" opacity="1" stroke="none" vectornator:layerName="path"/>
<path d="M36 33.932L36 23L34 23L34 35.938C34.7211 35.3259 35.3901 34.6549 36 33.932Z" fill="#000000" fill-rule="nonzero" opacity="1" stroke="none" vectornator:layerName="path"/>
<path d="M20 28L18 28L18 39.247C18.6564 39.445 19.3243 39.6026 20 39.719L20 28Z" fill="#000000" fill-rule="nonzero" opacity="1" stroke="none" vectornator:layerName="path"/>
<path d="M8.149 37.853C14.5316 44.2398 24.2835 45.8294 32.364 41.8C32.75 41.6074 33.216 41.684 33.52 41.99L35.02 43.5C35.416 43.8749 36.036 43.8749 36.432 43.5L43.502 36.431C43.8917 36.0406 43.8917 35.4084 43.502 35.018L41.992 33.518C41.686 33.214 41.6094 32.748 41.802 32.362C46.5787 22.7626 43.3566 11.1062 34.3277 5.32304C25.2988-0.460152 13.3632 1.48733 6.64083 9.84057C-0.081496 18.1938 0.568666 30.2698 8.149 37.853ZM23 4C23.5523 4 24 4.44772 24 5C24 5.55228 23.5523 6 23 6C17.0302 5.99498 11.496 9.12424 8.42298 14.2424C5.34999 19.3606 5.18941 25.7162 8 30.983L8 30C8 28.8954 8.89543 28 10 28L12 28C13.1046 28 14 28.8954 14 30L14 37.4C14.6418 37.8037 15.31 38.1638 16 38.478L16 28C16 26.8954 16.8954 26 18 26L20 26C21.1046 26 22 26.8954 22 28L22 39.949C22.333 39.969 22.662 40 23 40C23.338 40 23.667 39.969 24 39.949L24 30C24 28.8954 24.8954 28 26 28L28 28C29.1046 28 30 28.8954 30 30L30 38.474C30.6899 38.1611 31.3581 37.8023 32 37.4L32 23C32 21.8954 32.8954 21 34 21L36 21C37.1046 21 38 21.8954 38 23L38 30.983C40.4928 26.3108 40.6642 20.7433 38.4635 15.9266C36.2628 11.1099 31.9418 7.59501 26.778 6.421C26.4267 6.34453 26.1435 6.08535 26.0362 5.74217C25.929 5.399 26.0142 5.02467 26.2595 4.76176C26.5047 4.49885 26.8722 4.38784 27.222 4.471C37.0611 6.70257 43.4448 16.2296 41.7671 26.1782C40.0894 36.1267 30.9344 43.0333 20.9076 41.9148C10.8808 40.7962 3.47282 32.0418 4.02877 21.9681C4.58471 11.8945 12.911 4.00842 23 4ZM26.845 21.43L32.168 13.445C32.4745 12.9855 33.0955 12.8615 33.555 13.168C34.0145 13.4745 34.1385 14.0955 33.832 14.555L27.832 23.555C27.6671 23.8056 27.3984 23.969 27.1 24C27.0667 24.002 27.0333 24.002 27 24C26.7348 23.9999 26.4805 23.8945 26.293 23.707L23 20.414L19.707 23.707C19.3165 24.0974 18.6835 24.0974 18.293 23.707L15 20.414L11.707 23.707C11.3146 24.086 10.6909 24.0806 10.3052 23.6948C9.91945 23.3091 9.91403 22.6854 10.293 22.293L14.293 18.293C14.6835 17.9026 15.3165 17.9026 15.707 18.293L19 21.586L22.293 18.293C22.6835 17.9026 23.3165 17.9026 23.707 18.293L26.845 21.43Z" fill="#000000" fill-rule="nonzero" opacity="1" stroke="none" vectornator:layerName="path"/>
<path d="M12 35.938L12 30L10 30L10 33.932C10.6099 34.6549 11.2789 35.3259 12 35.938Z" fill="#000000" fill-rule="nonzero" opacity="1" stroke="none" vectornator:layerName="path"/>
<path d="M28 30L26 30L26 39.719C26.6757 39.6026 27.3436 39.445 28 39.247L28 30Z" fill="#000000" fill-rule="nonzero" opacity="1" stroke="none" vectornator:layerName="path"/>
<g fill="#000000" opacity="1" stroke="none" vectornator:layerName="text">
<path d="M0.396 78.232L0.396 80L0.736 80L0.736 78.232L1.136 78.232L1.136 77.932L0.736 77.932L0.736 77.644C0.736 77.5533 0.758667 77.492 0.804 77.46C0.849333 77.428 0.913333 77.412 0.996 77.412C1.02533 77.412 1.05733 77.414 1.092 77.418C1.12667 77.422 1.15867 77.4293 1.188 77.44L1.188 77.144C1.156 77.1333 1.11933 77.1253 1.078 77.12C1.03667 77.1147 1 77.112 0.968 77.112C0.781333 77.112 0.639333 77.1553 0.542 77.242C0.444667 77.3287 0.396 77.456 0.396 77.624L0.396 77.932L0.048 77.932L0.048 78.232L0.396 78.232Z"/>
<path d="M1.428 77.932L1.428 80L1.768 80L1.768 79.08C1.768 78.9467 1.78133 78.8287 1.808 78.726C1.83467 78.6233 1.87733 78.536 1.936 78.464C1.99467 78.392 2.072 78.3373 2.168 78.3C2.264 78.2627 2.38 78.244 2.516 78.244L2.516 77.884C2.332 77.8787 2.18 77.916 2.06 77.996C1.94 78.076 1.83867 78.2 1.756 78.368L1.748 78.368L1.748 77.932L1.428 77.932Z"/>
<path d="M2.948 78.968C2.948 78.8427 2.96467 78.7313 2.998 78.634C3.03133 78.5367 3.07733 78.4547 3.136 78.388C3.19467 78.3213 3.26333 78.2707 3.342 78.236C3.42067 78.2013 3.504 78.184 3.592 78.184C3.68 78.184 3.76333 78.2013 3.842 78.236C3.92067 78.2707 3.98933 78.3213 4.048 78.388C4.10667 78.4547 4.15267 78.5367 4.186 78.634C4.21933 78.7313 4.236 78.8427 4.236 78.968C4.236 79.0933 4.21933 79.2047 4.186 79.302C4.15267 79.3993 4.10667 79.4807 4.048 79.546C3.98933 79.6113 3.92067 79.6613 3.842 79.696C3.76333 79.7307 3.68 79.748 3.592 79.748C3.504 79.748 3.42067 79.7307 3.342 79.696C3.26333 79.6613 3.19467 79.6113 3.136 79.546C3.07733 79.4807 3.03133 79.3993 2.998 79.302C2.96467 79.2047 2.948 79.0933 2.948 78.968ZM2.588 78.968C2.588 79.12 2.60933 79.2613 2.652 79.392C2.69467 79.5227 2.75867 79.6367 2.844 79.734C2.92933 79.8313 3.03467 79.9073 3.16 79.962C3.28533 80.0167 3.42933 80.044 3.592 80.044C3.75733 80.044 3.902 80.0167 4.026 79.962C4.15 79.9073 4.25467 79.8313 4.34 79.734C4.42533 79.6367 4.48933 79.5227 4.532 79.392C4.57467 79.2613 4.596 79.12 4.596 78.968C4.596 78.816 4.57467 78.674 4.532 78.542C4.48933 78.41 4.42533 78.2953 4.34 78.198C4.25467 78.1007 4.15 78.024 4.026 77.968C3.902 77.912 3.75733 77.884 3.592 77.884C3.42933 77.884 3.28533 77.912 3.16 77.968C3.03467 78.024 2.92933 78.1007 2.844 78.198C2.75867 78.2953 2.69467 78.41 2.652 78.542C2.60933 78.674 2.588 78.816 2.588 78.968Z"/>
<path d="M4.996 77.932L4.996 80L5.336 80L5.336 78.712C5.336 78.672 5.346 78.622 5.366 78.562C5.386 78.502 5.418 78.444 5.462 78.388C5.506 78.332 5.56333 78.284 5.634 78.244C5.70467 78.204 5.78933 78.184 5.888 78.184C5.96533 78.184 6.02867 78.1953 6.078 78.218C6.12733 78.2407 6.16667 78.2727 6.196 78.314C6.22533 78.3553 6.246 78.404 6.258 78.46C6.27 78.516 6.276 78.5773 6.276 78.644L6.276 80L6.616 80L6.616 78.712C6.616 78.552 6.664 78.424 6.76 78.328C6.856 78.232 6.988 78.184 7.156 78.184C7.23867 78.184 7.306 78.196 7.358 78.22C7.41 78.244 7.45067 78.2767 7.48 78.318C7.50933 78.3593 7.52933 78.408 7.54 78.464C7.55067 78.52 7.556 78.58 7.556 78.644L7.556 80L7.896 80L7.896 78.484C7.896 78.3773 7.87933 78.286 7.846 78.21C7.81267 78.134 7.766 78.072 7.706 78.024C7.646 77.976 7.574 77.9407 7.49 77.918C7.406 77.8953 7.312 77.884 7.208 77.884C7.072 77.884 6.94733 77.9147 6.834 77.976C6.72067 78.0373 6.62933 78.124 6.56 78.236C6.51733 78.108 6.444 78.0173 6.34 77.964C6.236 77.9107 6.12 77.884 5.992 77.884C5.70133 77.884 5.47867 78.0013 5.324 78.236L5.316 78.236L5.316 77.932L4.996 77.932Z"/>
<path d="M9.992 77.932L9.992 77.312L9.652 77.312L9.652 77.932L9.3 77.932L9.3 78.232L9.652 78.232L9.652 79.548C9.652 79.644 9.66133 79.7213 9.68 79.78C9.69867 79.8387 9.72733 79.884 9.766 79.916C9.80467 79.948 9.85533 79.97 9.918 79.982C9.98067 79.994 10.056 80 10.144 80L10.404 80L10.404 79.7L10.248 79.7C10.1947 79.7 10.1513 79.698 10.118 79.694C10.0847 79.69 10.0587 79.6813 10.04 79.668C10.0213 79.6547 10.0087 79.636 10.002 79.612C9.99533 79.588 9.992 79.556 9.992 79.516L9.992 78.232L10.404 78.232L10.404 77.932L9.992 77.932Z"/>
<path d="M10.78 77.144L10.78 80L11.12 80L11.12 78.832C11.12 78.7387 11.1327 78.6527 11.158 78.574C11.1833 78.4953 11.2213 78.4267 11.272 78.368C11.3227 78.3093 11.386 78.264 11.462 78.232C11.538 78.2 11.628 78.184 11.732 78.184C11.8627 78.184 11.9653 78.2213 12.04 78.296C12.1147 78.3707 12.152 78.472 12.152 78.6L12.152 80L12.492 80L12.492 78.64C12.492 78.528 12.4807 78.426 12.458 78.334C12.4353 78.242 12.396 78.1627 12.34 78.096C12.284 78.0293 12.2107 77.9773 12.12 77.94C12.0293 77.9027 11.916 77.884 11.78 77.884C11.7187 77.884 11.6553 77.8907 11.59 77.904C11.5247 77.9173 11.462 77.938 11.402 77.966C11.342 77.994 11.288 78.03 11.24 78.074C11.192 78.118 11.1547 78.172 11.128 78.236L11.12 78.236L11.12 77.144L10.78 77.144Z"/>
<path d="M14.44 78.768L13.252 78.768C13.2573 78.688 13.2747 78.6127 13.304 78.542C13.3333 78.4713 13.3733 78.4093 13.424 78.356C13.4747 78.3027 13.5353 78.2607 13.606 78.23C13.6767 78.1993 13.756 78.184 13.844 78.184C13.9293 78.184 14.0073 78.1993 14.078 78.23C14.1487 78.2607 14.21 78.302 14.262 78.354C14.314 78.406 14.3553 78.468 14.386 78.54C14.4167 78.612 14.4347 78.688 14.44 78.768ZM14.768 79.344L14.432 79.344C14.4027 79.48 14.342 79.5813 14.25 79.648C14.158 79.7147 14.04 79.748 13.896 79.748C13.784 79.748 13.6867 79.7293 13.604 79.692C13.5213 79.6547 13.4533 79.6047 13.4 79.542C13.3467 79.4793 13.308 79.4073 13.284 79.326C13.26 79.2447 13.2493 79.1587 13.252 79.068L14.8 79.068C14.8053 78.9427 14.794 78.8107 14.766 78.672C14.738 78.5333 14.6873 78.4053 14.614 78.288C14.5407 78.1707 14.4433 78.074 14.322 77.998C14.2007 77.922 14.048 77.884 13.864 77.884C13.7227 77.884 13.5927 77.9107 13.474 77.964C13.3553 78.0173 13.2527 78.092 13.166 78.188C13.0793 78.284 13.012 78.3973 12.964 78.528C12.916 78.6587 12.892 78.8027 12.892 78.96C12.8973 79.1173 12.9207 79.2627 12.962 79.396C13.0033 79.5293 13.0653 79.644 13.148 79.74C13.2307 79.836 13.3327 79.9107 13.454 79.964C13.5753 80.0173 13.7187 80.044 13.884 80.044C14.1187 80.044 14.3133 79.9853 14.468 79.868C14.6227 79.7507 14.7227 79.576 14.768 79.344Z"/>
<path d="M16.316 77.144L16.316 80L16.676 80L16.676 77.708L16.684 77.708L18.176 80L18.592 80L18.592 77.144L18.232 77.144L18.232 79.46L18.224 79.46L16.72 77.144L16.316 77.144Z"/>
<path d="M19.4 78.968C19.4 78.8427 19.4167 78.7313 19.45 78.634C19.4833 78.5367 19.5293 78.4547 19.588 78.388C19.6467 78.3213 19.7153 78.2707 19.794 78.236C19.8727 78.2013 19.956 78.184 20.044 78.184C20.132 78.184 20.2153 78.2013 20.294 78.236C20.3727 78.2707 20.4413 78.3213 20.5 78.388C20.5587 78.4547 20.6047 78.5367 20.638 78.634C20.6713 78.7313 20.688 78.8427 20.688 78.968C20.688 79.0933 20.6713 79.2047 20.638 79.302C20.6047 79.3993 20.5587 79.4807 20.5 79.546C20.4413 79.6113 20.3727 79.6613 20.294 79.696C20.2153 79.7307 20.132 79.748 20.044 79.748C19.956 79.748 19.8727 79.7307 19.794 79.696C19.7153 79.6613 19.6467 79.6113 19.588 79.546C19.5293 79.4807 19.4833 79.3993 19.45 79.302C19.4167 79.2047 19.4 79.0933 19.4 78.968ZM19.04 78.968C19.04 79.12 19.0613 79.2613 19.104 79.392C19.1467 79.5227 19.2107 79.6367 19.296 79.734C19.3813 79.8313 19.4867 79.9073 19.612 79.962C19.7373 80.0167 19.8813 80.044 20.044 80.044C20.2093 80.044 20.354 80.0167 20.478 79.962C20.602 79.9073 20.7067 79.8313 20.792 79.734C20.8773 79.6367 20.9413 79.5227 20.984 79.392C21.0267 79.2613 21.048 79.12 21.048 78.968C21.048 78.816 21.0267 78.674 20.984 78.542C20.9413 78.41 20.8773 78.2953 20.792 78.198C20.7067 78.1007 20.602 78.024 20.478 77.968C20.354 77.912 20.2093 77.884 20.044 77.884C19.8813 77.884 19.7373 77.912 19.612 77.968C19.4867 78.024 19.3813 78.1007 19.296 78.198C19.2107 78.2953 19.1467 78.41 19.104 78.542C19.0613 78.674 19.04 78.816 19.04 78.968Z"/>
<path d="M23.16 80L23.16 77.932L22.82 77.932L22.82 79.1C22.82 79.1933 22.8073 79.2793 22.782 79.358C22.7567 79.4367 22.7187 79.5053 22.668 79.564C22.6173 79.6227 22.554 79.668 22.478 79.7C22.402 79.732 22.312 79.748 22.208 79.748C22.0773 79.748 21.9747 79.7107 21.9 79.636C21.8253 79.5613 21.788 79.46 21.788 79.332L21.788 77.932L21.448 77.932L21.448 79.292C21.448 79.404 21.4593 79.506 21.482 79.598C21.5047 79.69 21.544 79.7693 21.6 79.836C21.656 79.9027 21.7293 79.954 21.82 79.99C21.9107 80.026 22.024 80.044 22.16 80.044C22.312 80.044 22.444 80.014 22.556 79.954C22.668 79.894 22.76 79.8 22.832 79.672L22.84 79.672L22.84 80L23.16 80Z"/>
<path d="M23.672 77.932L23.672 80L24.012 80L24.012 78.832C24.012 78.7387 24.0247 78.6527 24.05 78.574C24.0753 78.4953 24.1133 78.4267 24.164 78.368C24.2147 78.3093 24.278 78.264 24.354 78.232C24.43 78.2 24.52 78.184 24.624 78.184C24.7547 78.184 24.8573 78.2213 24.932 78.296C25.0067 78.3707 25.044 78.472 25.044 78.6L25.044 80L25.384 80L25.384 78.64C25.384 78.528 25.3727 78.426 25.35 78.334C25.3273 78.242 25.288 78.1627 25.232 78.096C25.176 78.0293 25.1027 77.9773 25.012 77.94C24.9213 77.9027 24.808 77.884 24.672 77.884C24.3653 77.884 24.1413 78.0093 24 78.26L23.992 78.26L23.992 77.932L23.672 77.932Z"/>
<path d="M27.444 78.512L27.444 77.464L28.188 77.464C28.404 77.464 28.562 77.5087 28.662 77.598C28.762 77.6873 28.812 77.8173 28.812 77.988C28.812 78.1587 28.762 78.2893 28.662 78.38C28.562 78.4707 28.404 78.5147 28.188 78.512L27.444 78.512ZM27.064 77.144L27.064 80L27.444 80L27.444 78.832L28.316 78.832C28.604 78.8347 28.822 78.7613 28.97 78.612C29.118 78.4627 29.192 78.2547 29.192 77.988C29.192 77.7213 29.118 77.514 28.97 77.366C28.822 77.218 28.604 77.144 28.316 77.144L27.064 77.144Z"/>
<path d="M29.588 77.932L29.588 80L29.928 80L29.928 79.08C29.928 78.9467 29.9413 78.8287 29.968 78.726C29.9947 78.6233 30.0373 78.536 30.096 78.464C30.1547 78.392 30.232 78.3373 30.328 78.3C30.424 78.2627 30.54 78.244 30.676 78.244L30.676 77.884C30.492 77.8787 30.34 77.916 30.22 77.996C30.1 78.076 29.9987 78.2 29.916 78.368L29.908 78.368L29.908 77.932L29.588 77.932Z"/>
<path d="M31.108 78.968C31.108 78.8427 31.1247 78.7313 31.158 78.634C31.1913 78.5367 31.2373 78.4547 31.296 78.388C31.3547 78.3213 31.4233 78.2707 31.502 78.236C31.5807 78.2013 31.664 78.184 31.752 78.184C31.84 78.184 31.9233 78.2013 32.002 78.236C32.0807 78.2707 32.1493 78.3213 32.208 78.388C32.2667 78.4547 32.3127 78.5367 32.346 78.634C32.3793 78.7313 32.396 78.8427 32.396 78.968C32.396 79.0933 32.3793 79.2047 32.346 79.302C32.3127 79.3993 32.2667 79.4807 32.208 79.546C32.1493 79.6113 32.0807 79.6613 32.002 79.696C31.9233 79.7307 31.84 79.748 31.752 79.748C31.664 79.748 31.5807 79.7307 31.502 79.696C31.4233 79.6613 31.3547 79.6113 31.296 79.546C31.2373 79.4807 31.1913 79.3993 31.158 79.302C31.1247 79.2047 31.108 79.0933 31.108 78.968ZM30.748 78.968C30.748 79.12 30.7693 79.2613 30.812 79.392C30.8547 79.5227 30.9187 79.6367 31.004 79.734C31.0893 79.8313 31.1947 79.9073 31.32 79.962C31.4453 80.0167 31.5893 80.044 31.752 80.044C31.9173 80.044 32.062 80.0167 32.186 79.962C32.31 79.9073 32.4147 79.8313 32.5 79.734C32.5853 79.6367 32.6493 79.5227 32.692 79.392C32.7347 79.2613 32.756 79.12 32.756 78.968C32.756 78.816 32.7347 78.674 32.692 78.542C32.6493 78.41 32.5853 78.2953 32.5 78.198C32.4147 78.1007 32.31 78.024 32.186 77.968C32.062 77.912 31.9173 77.884 31.752 77.884C31.5893 77.884 31.4453 77.912 31.32 77.968C31.1947 78.024 31.0893 78.1007 31.004 78.198C30.9187 78.2953 30.8547 78.41 30.812 78.542C30.7693 78.674 30.748 78.816 30.748 78.968Z"/>
<path d="M33.516 77.56L33.516 77.144L33.176 77.144L33.176 77.56L33.516 77.56ZM33.516 80.26L33.516 77.932L33.176 77.932L33.176 80.204C33.176 80.3107 33.1627 80.3847 33.136 80.426C33.1093 80.4673 33.0587 80.488 32.984 80.488L32.912 80.488C32.9013 80.488 32.8913 80.4873 32.882 80.486C32.8727 80.4847 32.8613 80.4827 32.848 80.48L32.848 80.772C32.9013 80.7827 32.9587 80.788 33.02 80.788C33.172 80.788 33.2927 80.746 33.382 80.662C33.4713 80.578 33.516 80.444 33.516 80.26Z"/>
<path d="M35.48 78.768L34.292 78.768C34.2973 78.688 34.3147 78.6127 34.344 78.542C34.3733 78.4713 34.4133 78.4093 34.464 78.356C34.5147 78.3027 34.5753 78.2607 34.646 78.23C34.7167 78.1993 34.796 78.184 34.884 78.184C34.9693 78.184 35.0473 78.1993 35.118 78.23C35.1887 78.2607 35.25 78.302 35.302 78.354C35.354 78.406 35.3953 78.468 35.426 78.54C35.4567 78.612 35.4747 78.688 35.48 78.768ZM35.808 79.344L35.472 79.344C35.4427 79.48 35.382 79.5813 35.29 79.648C35.198 79.7147 35.08 79.748 34.936 79.748C34.824 79.748 34.7267 79.7293 34.644 79.692C34.5613 79.6547 34.4933 79.6047 34.44 79.542C34.3867 79.4793 34.348 79.4073 34.324 79.326C34.3 79.2447 34.2893 79.1587 34.292 79.068L35.84 79.068C35.8453 78.9427 35.834 78.8107 35.806 78.672C35.778 78.5333 35.7273 78.4053 35.654 78.288C35.5807 78.1707 35.4833 78.074 35.362 77.998C35.2407 77.922 35.088 77.884 34.904 77.884C34.7627 77.884 34.6327 77.9107 34.514 77.964C34.3953 78.0173 34.2927 78.092 34.206 78.188C34.1193 78.284 34.052 78.3973 34.004 78.528C33.956 78.6587 33.932 78.8027 33.932 78.96C33.9373 79.1173 33.9607 79.2627 34.002 79.396C34.0433 79.5293 34.1053 79.644 34.188 79.74C34.2707 79.836 34.3727 79.9107 34.494 79.964C34.6153 80.0173 34.7587 80.044 34.924 80.044C35.1587 80.044 35.3533 79.9853 35.508 79.868C35.6627 79.7507 35.7627 79.576 35.808 79.344Z"/>
<path d="M37.596 78.596L37.948 78.596C37.9347 78.4733 37.9027 78.3673 37.852 78.278C37.8013 78.1887 37.7367 78.1147 37.658 78.056C37.5793 77.9973 37.4887 77.954 37.386 77.926C37.2833 77.898 37.1733 77.884 37.056 77.884C36.8933 77.884 36.7507 77.9127 36.628 77.97C36.5053 78.0273 36.4033 78.106 36.322 78.206C36.2407 78.306 36.18 78.4233 36.14 78.558C36.1 78.6927 36.08 78.8373 36.08 78.992C36.08 79.1467 36.1007 79.2887 36.142 79.418C36.1833 79.5473 36.2447 79.6587 36.326 79.752C36.4073 79.8453 36.5087 79.9173 36.63 79.968C36.7513 80.0187 36.8907 80.044 37.048 80.044C37.312 80.044 37.5207 79.9747 37.674 79.836C37.8273 79.6973 37.9227 79.5 37.96 79.244L37.612 79.244C37.5907 79.404 37.5327 79.528 37.438 79.616C37.3433 79.704 37.212 79.748 37.044 79.748C36.9373 79.748 36.8453 79.7267 36.768 79.684C36.6907 79.6413 36.628 79.5847 36.58 79.514C36.532 79.4433 36.4967 79.3627 36.474 79.272C36.4513 79.1813 36.44 79.088 36.44 78.992C36.44 78.888 36.4507 78.7873 36.472 78.69C36.4933 78.5927 36.5287 78.5067 36.578 78.432C36.6273 78.3573 36.6933 78.2973 36.776 78.252C36.8587 78.2067 36.9613 78.184 37.084 78.184C37.228 78.184 37.3427 78.22 37.428 78.292C37.5133 78.364 37.5693 78.4653 37.596 78.596Z"/>
<path d="M38.812 77.932L38.812 77.312L38.472 77.312L38.472 77.932L38.12 77.932L38.12 78.232L38.472 78.232L38.472 79.548C38.472 79.644 38.4813 79.7213 38.5 79.78C38.5187 79.8387 38.5473 79.884 38.586 79.916C38.6247 79.948 38.6753 79.97 38.738 79.982C38.8007 79.994 38.876 80 38.964 80L39.224 80L39.224 79.7L39.068 79.7C39.0147 79.7 38.9713 79.698 38.938 79.694C38.9047 79.69 38.8787 79.6813 38.86 79.668C38.8413 79.6547 38.8287 79.636 38.822 79.612C38.8153 79.588 38.812 79.556 38.812 79.516L38.812 78.232L39.224 78.232L39.224 77.932L38.812 77.932Z"/>
</g>
</g>
</svg>
