<?xml version="1.0" encoding="UTF-8" standalone="no"?>
<!DOCTYPE svg PUBLIC "-//W3C//DTD SVG 1.1//EN" "http://www.w3.org/Graphics/SVG/1.1/DTD/svg11.dtd">
<!-- Created with Vectornator (http://vectornator.io/) -->
<svg height="100%" stroke-miterlimit="10" style="fill-rule:nonzero;clip-rule:evenodd;stroke-linecap:round;stroke-linejoin:round;" version="1.1" viewBox="0 0 110 84.9266" width="100%" xml:space="preserve" xmlns="http://www.w3.org/2000/svg" xmlns:vectornator="http://vectornator.io" xmlns:xlink="http://www.w3.org/1999/xlink">
<defs/>
<g id="Untitled" vectornator:layerName="Untitled">
<path d="M32.5607 73.473C31.3263 74.7035 29.7052 75.3207 28.0841 75.3207C26.463 75.3207 24.8458 74.7035 23.6114 73.473C22.4122 72.2777 21.752 70.6878 21.752 68.9964C21.752 67.805 22.0801 66.6605 22.6934 65.6722C17.6543 58.7972 14.9981 50.6762 14.9981 42.0822C14.9981 31.3982 19.1583 21.3522 26.7131 13.7972C34.2678 6.24245 44.3111 2.08215 54.9941 2.08215C61.9629 2.08215 68.8221 3.90245 74.8341 7.34385C75.7638 7.8751 76.0841 9.05865 75.5529 9.98445C75.0216 10.9102 73.8381 11.2345 72.9123 10.7032C67.4865 7.5938 61.2913 5.9532 54.9983 5.9532C35.0803 5.9532 18.8733 22.1602 18.8733 42.0822C18.8733 49.7463 21.2131 56.9922 25.6545 63.1522C27.9475 62.203 30.6936 62.6561 32.5607 64.5155C35.0295 66.9843 35.0295 70.9999 32.5646 73.4686L32.5607 73.473ZM87.2987 18.489C88.8026 16.0515 88.4979 12.8054 86.3885 10.6921C85.1932 9.49675 83.6033 8.84045 81.9119 8.84045C80.2205 8.84045 78.6307 9.4967 77.4353 10.6921C74.9665 13.1609 74.9665 17.1765 77.4353 19.6413C78.6697 20.8757 80.2908 21.4929 81.9119 21.4929C82.7401 21.4929 83.5681 21.3327 84.3455 21.0085C88.7869 27.1687 91.1267 34.4185 91.1267 42.0825C91.1267 62.0005 74.9197 78.2075 54.9977 78.2075C48.7047 78.2075 42.5097 76.5669 37.0837 73.4614C36.158 72.9301 34.9743 73.2504 34.4431 74.1801C33.9119 75.1098 34.2322 76.2895 35.1619 76.8207C41.1736 80.2582 48.0329 82.0785 55.0019 82.0785C65.6859 82.0785 75.7319 77.9183 83.2869 70.3635C90.8416 62.8088 95.0019 52.7655 95.0019 42.0825C95.0019 33.4887 92.3457 25.3635 87.3066 18.4845L87.2987 18.489ZM43.6577 54.223L28.8377 54.223C32.5408 62.1722 39.7677 68.168 48.4937 70.188C47.607 68.7388 46.7398 66.8677 45.9429 64.4575C44.9507 61.4692 44.1812 57.9966 43.6577 54.2275L43.6577 54.223ZM43.2163 50.3519L27.3643 50.3519C26.5791 47.7308 26.1534 44.9535 26.1534 42.0824C26.1534 39.2074 26.5792 36.4301 27.3643 33.8051L43.2163 33.8051C42.978 36.4731 42.853 39.2504 42.853 42.0824C42.853 44.9144 42.978 47.6879 43.2163 50.3519ZM43.6577 29.9339L28.8417 29.9339C32.5448 21.9847 39.7677 15.9929 48.4937 13.9729C47.607 15.4182 46.7398 17.2932 45.9429 19.7034C44.9507 22.6917 44.1812 26.1643 43.6577 29.9334L43.6577 29.9339ZM47.5639 29.9339C48.0522 26.6097 48.7397 23.5589 49.6147 20.9222C51.4975 15.2464 53.6889 13.2347 54.9975 13.2347C56.3022 13.2347 58.5014 15.2464 60.3803 20.9222C61.2553 23.5589 61.9428 26.6097 62.4311 29.9339L47.5639 29.9339ZM47.103 33.805L62.896 33.805C63.146 36.4573 63.2749 39.2386 63.2749 42.0823C63.2749 44.926 63.146 47.6995 62.896 50.3518L47.103 50.3518C46.853 47.6995 46.724 44.9221 46.724 42.0823C46.724 39.2425 46.853 36.4612 47.103 33.805ZM66.783 33.805L82.635 33.805C83.4201 36.4261 83.8459 39.2034 83.8459 42.0823C83.8459 44.9573 83.4201 47.7307 82.635 50.3518L66.783 50.3518C67.0212 47.6877 67.1462 44.9104 67.1462 42.0823C67.1462 39.2542 67.0212 36.4729 66.783 33.805ZM81.158 29.9339L66.342 29.9339C65.8185 26.1644 65.049 22.6917 64.0568 19.7039C63.256 17.2937 62.3927 15.4227 61.506 13.9734C70.2326 15.9929 77.451 21.9851 81.158 29.9304L81.158 29.9339ZM66.342 54.2229L81.162 54.2229C77.4589 62.1721 70.236 68.1639 61.51 70.1879C62.3967 68.7387 63.2639 66.8676 64.0608 64.4574C65.0529 61.4691 65.8225 57.9965 66.346 54.2274L66.342 54.2229ZM62.4358 54.2229C61.9514 57.5471 61.26 60.6018 60.385 63.2385C58.5022 68.9143 56.3069 70.9299 55.0022 70.9299C53.6936 70.9299 51.5022 68.9143 49.6194 63.2385C48.7444 60.6018 48.053 57.551 47.5686 54.2268L62.4396 54.2268L62.4358 54.2229Z" fill="#000000" fill-rule="nonzero" opacity="1" stroke="none" vectornator:layerName="path"/>
</g>
</svg>
